<?xml version="1.0" encoding="UTF-8"?>
<svg id="Layer_5" data-name="Layer 5" xmlns="http://www.w3.org/2000/svg" viewBox="0 0 1008.5 343">
  <defs>
    <style>
      .cls-1 {
        fill: #fff;
        stroke-width: 0px;
      }
    </style>
  </defs>
  <polygon class="cls-1" points="211.45 49.08 214.32 47.44 290.53 4.01 280.29 44.57 253.66 96.61 243 108.49 167.61 148.65 153.68 158.48 133.6 158.48 124.99 182.66 130.73 180.2 136.88 165.86 149.17 166.27 130.73 209.29 93.44 224.45 86.48 231.42 107.79 235.51 100 227.32 129.09 217.07 120.9 243.71 114.34 261.74 106.56 276.49 97.54 291.65 88.94 303.94 77.05 316.23 62.3 325.66 48.37 334.5 33.62 339.59 27.06 339.59 36.49 331.8 22.15 329.76 9.45 324.43 3.3 317.46 20.1 317.46 9.04 305.99 3.3 287.55 15.59 300.66 28.7 305.99 40.18 303.12 52.88 285.91 63.53 258.46 69.68 232.24 77.46 204.37 84.43 184.5 95.08 165.04 101.64 160.12 120.9 158.07 124.99 155.2 138.93 131.03 129.5 135.53 116.8 153.15 101.64 155.2 103.69 146.6 112.29 131.85 127.86 112.59 146.5 95.79 165.97 80.63 205.72 55.63 200.8 77.76 197.93 93.33 197.93 112.59 216.78 84.73 204.08 89.23 211.45 49.08"/>
  <polygon class="cls-1" points="85.66 337.54 102.87 303.94 120.9 307.63 115.57 337.54 85.66 337.54"/>
  <polygon class="cls-1" points="148.76 337.54 119.26 337.54 124.58 305.99 103.28 301.07 111.06 283.45 132.78 286.32 146.92 262.15 124.18 255.59 134.42 238.38 185.64 249.04 167.61 277.31 154.5 303.94 148.76 337.54"/>
  <polygon class="cls-1" points="113.11 280.18 131.14 283.04 141.79 265.02 120.9 259.69 113.11 280.18"/>
  <polygon class="cls-1" points="208.99 250.26 216.78 285.5 265.54 273.21 257.75 240.84 250.38 246.99 242.59 249.85 208.99 250.26"/>
  <polygon class="cls-1" points="230.3 285.5 240.13 334.5 288.89 337.54 278.65 299.02 265.54 276.49 230.3 285.5"/>
  <polygon class="cls-1" points="226.61 287.96 217.6 290.01 219.24 303.94 222.11 328.53 233.58 331.8 226.61 287.96"/>
  <polygon class="cls-1" points="138.11 233.46 136.06 215.85 155.73 166.27 165.15 155.61 245.46 114.23 259.6 212.16 238.91 200 249.15 197.41 242.59 171.5 208.99 177.74 208.99 168.5 197.83 171.5 197.83 186.34 227.84 181.84 237.27 227.32 244.23 212.16 257.75 217.07 256.93 233.46 245.46 243.3 237.27 245.76 208.99 245.76 168.43 240.84 138.11 233.46"/>
</svg>